M48
METRIC,LZ,000.000
;FILE_FORMAT=3:3
;TYPE=PLATED
;Layer: PTH_Through
;EasyEDA v6.5.54, 2026-05-29 21:10:21
;f2d11de645cd4996bd55e264b69ee3a2,7be5111a89c9427e97573e19140bd0cd,10
;Gerber Generator version 0.2
;Holesize 1 = 0.600 mm
T01C0.600
;Holesize 2 = 0.701 mm
T02C0.701
;Holesize 3 = 0.915 mm
T03C0.915
;Holesize 4 = 1.000 mm
T04C1.000
;Holesize 5 = 1.001 mm
T05C1.001
;Holesize 6 = 1.015 mm
T06C1.015
;Holesize 7 = 1.067 mm
T07C1.067
;Holesize 8 = 1.101 mm
T08C1.101
;Holesize 9 = 1.800 mm
T09C1.800
%
G05
G90
T01
X115446Y030226G85X115440Y030226
X105446Y030226G85X105440Y030226
X115446Y040259G85X115440Y040259
X105446Y040259G85X105440Y040259
T02
X087757Y007493
X083312Y007493
X094742Y050292
X094742Y058039
T03
X118364Y013233
T04
X102362Y030226
X099822Y030226
X101752Y040259G85X101702Y040259
X099212Y040259G85X099162Y040259
X101695Y049148
X101695Y051688
X101695Y054228
X091186Y055496G85X091186Y055502
X091186Y052956G85X091186Y052962
X091186Y050416G85X091186Y050422
X091186Y047876G85X091186Y047882
X091186Y045336G85X091186Y045342
X091186Y042796G85X091186Y042802
X091186Y040256G85X091186Y040262
X091186Y037716G85X091186Y037722
X091186Y035176G85X091186Y035182
X091186Y032636G85X091186Y032642
X091186Y030096G85X091186Y030102
X091186Y027556G85X091186Y027562
X091186Y025016G85X091186Y025022
X091186Y022476G85X091186Y022482
X091186Y019936G85X091186Y019942
X065786Y052956G85X065786Y052962
X065786Y050416G85X065786Y050422
X065786Y047876G85X065786Y047882
X065786Y045336G85X065786Y045342
X065786Y042796G85X065786Y042802
X065786Y040256G85X065786Y040262
X065786Y037716G85X065786Y037722
X065786Y035176G85X065786Y035182
X065786Y032636G85X065786Y032642
X065786Y030096G85X065786Y030102
X065786Y027556G85X065786Y027562
X065786Y025016G85X065786Y025022
X065786Y022476G85X065786Y022482
X065786Y019936G85X065786Y019942
X065786Y055496G85X065786Y055502
X091186Y017396G85X091186Y017402
X091186Y014856G85X091186Y014862
X091189Y058039G85X091183Y058039
X065789Y058039G85X065783Y058039
X065786Y017396G85X065786Y017402
X065786Y014856G85X065786Y014862
X091186Y012316G85X091186Y012322
X065786Y012316G85X065786Y012322
X026797Y-000635
X029337Y-000635
X024257Y-000635
X021717Y-000635
X057150Y041402
X045150Y041402
X045085Y044196
X057085Y044196
X051943Y060706
X051943Y058166
X051943Y055626
X051943Y053086
X108204Y018288
X108204Y015748
X108204Y013208
X108204Y010668
X118364Y010693
T05
X017018Y055753
X017018Y058293
X010668Y058293
X010668Y055753
T06
X033973Y039243
X031433Y039243
X028893Y039243
X026353Y039243
T07
X051689Y-003683
X051715Y-006223
X051689Y-008763
X051689Y-011303
T08
X014097Y021971
X014097Y024511
T09
X018591Y031814G85X018681Y031814
X018588Y013800G85X018678Y013800
X057590Y031814G85X057680Y031814
X057590Y013810G85X057680Y013810
M30
