G04 Layer: TopSolderMaskLayer*
G04 EasyEDA v6.5.54, 2026-05-29 21:10:21*
G04 f2d11de645cd4996bd55e264b69ee3a2,7be5111a89c9427e97573e19140bd0cd,10*
G04 Gerber Generator version 0.2*
G04 Scale: 100 percent, Rotated: No, Reflected: No *
G04 Dimensions in millimeters *
G04 leading zeros omitted , absolute positions ,4 integer and 5 decimal *
%FSLAX45Y45*%
%MOMM*%

%AMMACRO1*4,1,8,-1.0422,-1.1016,-1.1016,-1.0419,-1.1016,1.0422,-1.0422,1.1016,1.0419,1.1016,1.1016,1.0422,1.1016,-1.0419,1.0419,-1.1016,-1.0422,-1.1016,0*%
%AMMACRO2*4,1,8,-1.0211,-0.9008,-1.0508,-0.8708,-1.0508,0.8711,-1.0211,0.9008,1.0208,0.9008,1.0508,0.8711,1.0508,-0.8708,1.0208,-0.9008,-1.0211,-0.9008,0*%
%AMMACRO3*4,1,8,-0.9863,-1.016,-1.016,-0.986,-1.016,0.9863,-0.9863,1.016,0.986,1.016,1.016,0.9863,1.016,-0.986,0.986,-1.016,-0.9863,-1.016,0*%
%AMMACRO4*4,1,8,-1.0211,-1.0508,-1.0508,-1.0208,-1.0508,1.0211,-1.0211,1.0508,1.0208,1.0508,1.0508,1.0211,1.0508,-1.0208,1.0208,-1.0508,-1.0211,-1.0508,0*%
%ADD10C,2.2032*%
%ADD11MACRO1*%
%ADD12C,2.1016*%
%ADD13C,1.9812*%
%ADD14MACRO2*%
%ADD15C,3.1016*%
%ADD16C,0.0133*%
%ADD17C,2.2000*%
%ADD18MACRO3*%
%ADD19C,1.7272*%
%ADD20MACRO4*%
%ADD21C,1.7016*%

%LPD*%
D10*
G01*
X10236200Y3022600D03*
D11*
G01*
X9982200Y3022600D03*
D12*
G01*
X10172700Y4025900D03*
G01*
X9918700Y4025900D03*
G01*
X10169499Y4914798D03*
G01*
X10169499Y5168798D03*
G01*
X10169499Y5422798D03*
G01*
X3397300Y3924300D03*
G01*
X3143300Y3924300D03*
G01*
X2889300Y3924300D03*
G01*
X2635300Y3924300D03*
D13*
G01*
X5168900Y-368300D03*
G01*
X5171440Y-622300D03*
G01*
X5168900Y-876300D03*
G01*
X5168900Y-1130300D03*
D12*
G01*
X9118600Y5549900D03*
G01*
X9118600Y5295900D03*
G01*
X9118600Y5041900D03*
G01*
X9118600Y4787900D03*
G01*
X9118600Y4533900D03*
G01*
X9118600Y4279900D03*
G01*
X9118600Y4025900D03*
G01*
X9118600Y3771900D03*
G01*
X9118600Y3517900D03*
G01*
X9118600Y3263900D03*
G01*
X9118600Y3009900D03*
G01*
X9118600Y2755900D03*
G01*
X9118600Y2501900D03*
G01*
X9118600Y2247900D03*
G01*
X9118600Y1993900D03*
G01*
X6578600Y5295900D03*
G01*
X6578600Y5041900D03*
G01*
X6578600Y4787900D03*
G01*
X6578600Y4533900D03*
G01*
X6578600Y4279900D03*
G01*
X6578600Y4025900D03*
G01*
X6578600Y3771900D03*
G01*
X6578600Y3517900D03*
G01*
X6578600Y3263900D03*
G01*
X6578600Y3009900D03*
G01*
X6578600Y2755900D03*
G01*
X6578600Y2501900D03*
G01*
X6578600Y2247900D03*
G01*
X6578600Y1993900D03*
G01*
X6578600Y5549900D03*
G01*
X9118600Y1739900D03*
G01*
X9118600Y1485900D03*
D14*
G01*
X9118600Y5803861D03*
G01*
X6578600Y5803861D03*
D12*
G01*
X6578600Y1739900D03*
G01*
X6578600Y1485900D03*
G01*
X9118600Y1231900D03*
G01*
X6578600Y1231900D03*
D10*
G01*
X2679700Y-63500D03*
G01*
X2933700Y-63500D03*
D11*
G01*
X2425700Y-63500D03*
D10*
G01*
X2171700Y-63500D03*
D15*
G01*
X1863597Y3181350D03*
G01*
X1863344Y1379981D03*
G01*
X5763513Y3181350D03*
G01*
X5763513Y1380997D03*
D17*
G01*
X5715000Y4140200D03*
G01*
X4515002Y4140200D03*
G01*
X4508500Y4419600D03*
G01*
X5708497Y4419600D03*
D18*
G01*
X1701800Y5575300D03*
G01*
X1701800Y5829300D03*
D10*
G01*
X5194300Y6070600D03*
G01*
X5194300Y5816600D03*
G01*
X5194300Y5562600D03*
D11*
G01*
X5194300Y5308600D03*
D18*
G01*
X1066800Y5829300D03*
G01*
X1066800Y5575300D03*
D11*
G01*
X10820400Y1828800D03*
D10*
G01*
X10820400Y1574800D03*
G01*
X10820400Y1320800D03*
G01*
X10820400Y1066800D03*
D19*
G01*
X11836400Y1069339D03*
G01*
X11836400Y1323339D03*
D20*
G01*
X1409700Y2197100D03*
D12*
G01*
X1409700Y2451100D03*
D21*
G01*
X11544300Y3022600D03*
G01*
X10544302Y3022600D03*
G01*
X11544300Y4025900D03*
G01*
X10544302Y4025900D03*
M02*
